<?xml version="1.0" encoding="UTF-8" standalone="no"?>
<!-- Created with Inkscape (http://www.inkscape.org/) -->

<svg width="512" height="512" viewBox="0 0 512 512" version="1.1" id="svg1" inkscape:version="1.3.2 (091e20e, 2023-11-25, custom)" sodipodi:docname="icon.svg" inkscape:export-filename="logo-48.png" inkscape:export-xdpi="9" inkscape:export-ydpi="9"
    xmlns:inkscape="http://www.inkscape.org/namespaces/inkscape"
    xmlns:sodipodi="http://sodipodi.sourceforge.net/DTD/sodipodi-0.dtd"
    xmlns="http://www.w3.org/2000/svg"
    xmlns:svg="http://www.w3.org/2000/svg">
    <sodipodi:namedview id="namedview1" pagecolor="#2d3436" bordercolor="#000000" borderopacity="0.25" inkscape:showpageshadow="2" inkscape:pageopacity="0.0" inkscape:pagecheckerboard="0" inkscape:deskcolor="#d1d1d1" inkscape:document-units="px" inkscape:zoom="2.1894531" inkscape:cx="256" inkscape:cy="282.49064" inkscape:window-width="2256" inkscape:window-height="1398" inkscape:window-x="-11" inkscape:window-y="-11" inkscape:window-maximized="1" inkscape:current-layer="layer1" inkscape:export-bgcolor="#2d3436ff" />
    <defs id="defs1" />
    <g inkscape:label="Layer 1" inkscape:groupmode="layer" id="layer1">
        <rect width="100%" height="100%" fill="#2d3436"/>
        <path d="m 110.84797,384.064 q 0,6.144 -36.48,6.144 -36.864,0 -36.864,-5.76 V 134.08 q 0,-13.44 14.208,-13.44 h 73.344 q 100.992,0 100.992,78.72 0,23.808 -9.216,43.392 -9.216,19.2 -26.112,30.72 l 48.384,80.64 q -3.072,9.216 -19.968,21.12 -23.04,16.512 -38.016,16.512 -14.976,0 -22.272,-10.752 l -36.096,-84.096 h -11.904 z m 0,-195.456 v 57.6 h 1.92 q 36.48,0 36.48,-30.336 0,-13.824 -7.296,-20.352 -6.912,-6.912 -23.04,-6.912 z m 363.64806,192.384 q 0,8.064 -36.096,8.064 -36.096,0 -39.168,-5.76 l -64.128,-119.808 v 119.424 q 0,6.912 -35.712,6.912 -35.328,0 -35.328,-6.912 V 126.016 q 0,-5.76 30.336,-5.76 11.904,0 27.648,2.304 16.128,1.92 19.584,7.68 l 61.44,118.272 V 127.936 q 0,-7.296 35.712,-7.296 35.712,0 35.712,7.296 z" id="text1" style="font-size:384px;font-family:'Lilita One';-inkscape-font-specification:'Lilita One';fill:#05c46b" aria-label="RN" />
    </g>
</svg>
