<?xml version="1.0" encoding="UTF-8" standalone="no"?>
<!-- Created with Inkscape (http://www.inkscape.org/) -->

<svg width="512" height="512" viewBox="0 0 512 512" version="1.1" id="svg1" inkscape:version="1.3.2 (091e20e, 2023-11-25, custom)" sodipodi:docname="logo.svg"
    xmlns:inkscape="http://www.inkscape.org/namespaces/inkscape"
    xmlns:sodipodi="http://sodipodi.sourceforge.net/DTD/sodipodi-0.dtd"
    xmlns="http://www.w3.org/2000/svg"
    xmlns:svg="http://www.w3.org/2000/svg">
    <sodipodi:namedview id="namedview1" pagecolor="#2d3436" bordercolor="#000000" borderopacity="0.25" inkscape:showpageshadow="2" inkscape:pageopacity="0.0" inkscape:pagecheckerboard="0" inkscape:deskcolor="#d1d1d1" inkscape:document-units="px" inkscape:zoom="2.1894531" inkscape:cx="255.77164" inkscape:cy="256" inkscape:window-width="2256" inkscape:window-height="1398" inkscape:window-x="-11" inkscape:window-y="-11" inkscape:window-maximized="1" inkscape:current-layer="layer1" />
    <defs id="defs1" />
    <g inkscape:label="Layer 1" inkscape:groupmode="layer" id="layer1">
        <g id="text1" style="font-size:192px;font-family:'Lilita One';-inkscape-font-specification:'Lilita One';fill:#05c46b" aria-label="Right&#10;Now.">
            <rect width="100%" height="100%" fill="#2d3436"/>
            <path d="m 86.143899,215.512 q 0,3.072 -18.24,3.072 -18.432,0 -18.432,-2.88 V 90.519997 q 0,-6.72 7.104,-6.72 h 36.672 q 50.496001,0 50.496001,39.360003 0,11.904 -4.608,21.696 -4.608,9.6 -13.056,15.36 l 24.192,40.32 q -1.536,4.608 -9.984,10.56 -11.52,8.256 -19.008,8.256 -7.488,0 -11.136,-5.376 L 92.095899,171.928 h -5.952 z m 0,-97.728 v 28.8 h 0.96 q 18.240001,0 18.240001,-15.168 0,-6.912 -3.648,-10.176 -3.456001,-3.456 -11.520001,-3.456 z m 110.784031,99.264 q 0,1.536 -17.664,1.536 -17.472,0 -17.472,-1.344 v -94.272 q 0,-1.344 17.472,-1.344 17.664,0 17.664,1.152 z m 0,-105.6 q 0,1.344 -17.664,1.344 -17.472,0 -17.472,-1.152 V 83.991997 q 0,-1.92 17.472,-1.92 17.664,0 17.664,1.152 z M 249.53607,218.2 q -18.624,0 -28.8,-11.904 -10.176,-12.096 -10.176,-35.52 0,-23.616 13.248,-36.864 13.44,-13.44 35.52,-13.44 22.272,0 36.672,9.792 v 95.616 q 0,14.208 -11.52,21.696 -11.52,7.68 -29.568,7.68 -18.048,0 -32.256,-4.608 -1.92,-4.608 -1.92,-8.256 0,-12.288 4.032,-18.048 12.864,5.568 27.456,5.568 10.56,0 10.56,-7.488 v -5.76 q -8.256,1.536 -13.248,1.536 z m 8.832,-66.432 q -12.864,0 -12.864,19.392 0,12.096 4.992,15.744 3.264,2.496 6.528,2.496 3.264,0 5.76,-0.576 v -36.48 q -2.304,-0.576 -4.416,-0.576 z m 86.97614,65.088 q 0,1.728 -16.128,1.728 -15.936,0 -15.936,-2.688 V 84.375997 q 0,-1.344 5.952,-1.92 5.952,-0.576 9.984,-0.576 16.128,0 16.128,3.456 V 123.736 q 10.752,-3.264 16.32,-3.264 14.592,0 23.04,7.872 8.448,7.68 8.448,28.8 v 59.52 q 0,1.728 -14.976,1.728 -16.896,-0.576 -16.896,-1.92 v -56.448 q 0,-9.408 -6.144,-9.408 -4.224,0 -9.792,4.032 z m 108.28789,0.192 q 0,2.304 -16.128,2.304 -19.2,-0.768 -19.2,-2.496 v -67.968 h -9.792 q -3.84,0 -3.84,-13.248 0,-3.456 0.576,-8.448 0.768,-4.992 2.88,-4.992 h 10.176 v -16.896 q 0,-3.84 16.128,-3.84 16.32,0 16.32,3.072 v 12.288 l 0.192,5.376 h 16.32 q 3.264,0 3.264,13.44 0,13.44 -3.264,13.44 h -13.632 z" id="path1" />
            <path d="m 154.6879,423.976 q 0,4.032 -18.048,4.032 -18.048,0 -19.584,-2.88 L 84.991899,365.224 v 59.712 q 0,3.456 -17.856,3.456 -17.664,0 -17.664,-3.456 V 296.488 q 0,-2.88 15.168,-2.88 5.952,0 13.824,1.152 8.064,0.96 9.792,3.84 l 30.720001,59.136 v -60.288 q 0,-3.648 17.856,-3.648 17.856,0 17.856,3.648 z m 26.49614,-7.104 q -11.904,-13.248 -11.904,-36.672 0,-23.424 11.904,-36.672 12.096,-13.248 32.448,-13.248 20.352,0 32.256,13.248 11.904,13.248 11.904,36.672 0,23.424 -11.904,36.672 -11.904,13.248 -32.256,13.248 -20.352,0 -32.448,-13.248 z m 32.448,-54.528 q -10.752,0 -10.752,17.664 0,17.664 10.752,17.664 10.944,0 10.944,-17.664 0,-17.664 -10.944,-17.664 z M 371.07213,333.16 q 0,-1.728 10.56,-1.728 23.808,0 23.424,1.536 l -18.816,93.312 q -0.576,3.072 -21.312,3.072 -20.736,0 -21.312,-3.072 l -7.872,-43.008 -9.792,43.008 q -0.576,2.88 -22.08,2.88 -21.312,0 -21.888,-3.456 l -17.088,-93.504 q -0.576,-1.152 16.512,-1.152 16.896,0.192 16.896,0.768 l 8.832,64.896 15.936,-64.128 q 0.384,-1.152 12.672,-1.152 12.288,0 12.672,1.152 l 15.744,63.36 z m 76.22416,95.616 q 0,1.344 -18.24,1.344 -18.048,0 -18.048,-1.152 v -34.56 q 0,-1.728 18.048,-1.728 18.24,0 18.24,0.96 z" id="path2" />
        </g>
    </g>
</svg>
